<?xml version="1.0"?><svg version="1.2" baseProfile="tiny-ps" viewBox="0 0 300 300" xmlns="http://www.w3.org/2000/svg" xmlns:xlink="http://www.w3.org/1999/xlink"><title>mind and bloom</title><g><g fill="#fdfdfc" transform="matrix(.1 0 0 -.1 0 300)"><path d="M0 1500V0h3000v3000H0V1500z"/></g><g fill="#d7dade" transform="matrix(.1 0 0 -.1 0 300)"><path d="M635 2107c-27-8-68-22-90-32l-40-19-45-46-46-45-24-50-23-50-5-91-4-92 17-53 18-54 50-79 51-79 4-56 4-56-20-90-20-90 7-8 7-7 200 2 199 3 3 57 3 58 22 15 21 15h116l21 21 21 21-6 38-6 39 11 7 11 6-6 29-5 28 10 7 11 6-4 29-4 28 27 6c15 4 33 13 40 21l13 15-47 92-48 92 1 52v52l-22 58-21 57-51 52-52 51-57 21-58 22-67 5-67 5-50-13zm132-89 23-21v-36l51 6 52 6 13-18c19-26 18-37-12-80l-25-38 20-21c11-11 22-33 26-47l6-26-17-18-18-17-48 4-48 5-6-24-6-23-24-19-24-19v-112h8c4 0 19 20 34 45l26 44 32 16 31 16 39-3 39-3-16-34-16-33-36-24c-20-12-56-27-80-33l-44-10-8-13-9-13v-275h-20v275l-8 12c-4 6-34 19-67 28l-60 18-31 33c-17 18-34 42-37 53l-5 21h87l36-31c20-18 43-45 51-61l15-29 10 6 9 6-6 52-7 52-23 28c-13 16-24 34-24 41v13l-48-5-48-4-18 17-17 18 6 26c4 14 16 36 27 48l20 22-21 27-21 27v66l9 5c14 9 53 10 84 1l27-7v42l20 20 20 20h54l23-22zm-87-89c-14-5-33-20-42-32l-18-22v-66l16-24 16-24 34-11 34-12 35 12 35 12 15 28c19 37 19 75-1 105l-15 24-31 10c-37 13-45 13-78 0zm70-64 12-14-4-17c-2-9-11-22-20-28l-18-11-17 11c-10 6-19 19-21 28l-4 17 12 14c7 8 20 15 30 15s23-7 30-15zm550 50v-145h69l3 78 3 77 35-62c19-35 37-63 40-63s25 33 48 73l41 72 1-87v-88h60v290h-66l-38-65c-21-36-42-65-46-65-5 0-25 29-45 65l-37 65h-68v-145zm370 0v-145h70v290h-70v-145zm130 0v-145h69l3 81 3 80 55-78 56-78 32-3 32-3v291h-59l-3-87-3-88-60 87-60 87-32 1h-33v-145zm310 0v-145h172l39 39 39 39 1 33c2 56-2 82-18 112l-14 28-32 19-32 20h-155v-145zm144 74 25-12 11-28 12-28-7-30-7-31-21-15-21-15h-66v170h25c13 0 35-5 49-11zm-916-391c-20-51-39-101-43-110l-7-18h61l6 20 6 20h87l5-20 5-20h53l-7 23c-4 12-22 60-40 107l-32 85-30 3-29 3-35-93zm81-25 1-13h-20c-23 0-23 0-9 37l11 28 8-20c5-11 9-26 9-32zm121 7v-110h50v135l45-68 45-67h50v220h-49l-3-61-3-61-43 61-43 61h-49v-110zm235 98c-3-8-4-57-3-109l3-94h134l21 21 21 21 8 34 8 34-9 31c-4 17-17 39-28 49l-21 19-64 4-65 4-5-14zm119-54 16-15v-58l-16-15-15-16h-49v120h49l15-16zm-594-370v-147l82 5 81 5 24 27 23 27v46l-20 26-20 25 15 12c18 15 19 43 4 72l-11 20-33 14-34 14h-111v-146zm128 62 4-19-14-8c-7-5-23-9-35-9h-23v61l32-3 33-3 3-19zm7-116v-25l-37-3-38-3v62l38-3 37-3v-25zm119 187c-2-7-3-71-2-143l3-129 88-3 87-3v71h-110v220h-61l-5-13zm266-6-35-18-18-31-19-32v-90l19-32 18-31 35-18 35-19h66l27 14c15 8 38 26 52 41l25 27v126l-25 27c-14 15-37 33-52 41l-27 14h-66l-35-19zm115-64 27-23v-78l-27-23c-29-26-43-28-78-12l-25 11-11 25c-14 30-14 46 0 77 22 47 74 58 114 23zm208 68-33-14-20-33c-11-18-23-47-26-64l-6-32 20-45 20-45 27-18 26-17 47-4 47-4 33 20c18 12 41 35 52 53l20 33v80l-20 33-20 32-32 20-33 20h-35c-19-1-50-7-67-15zm111-66 26-20v-88l-27-21-28-22-30 6-30 6-17 21-18 21v30c0 75 67 112 124 67zm141 69c-3-8-4-72-3-144l3-129h60l5 75 5 75 33-57c19-32 35-58 37-58s19 25 37 55l33 56 5-73 5-73 33-3 33-3-3 143-3 143-27 3-28 3-42-67-42-67-11 17c-5 10-24 39-40 64l-30 47-28 3-27 3-5-13zM498 989l-18-10v-40l30-17c16-9 30-21 30-26v-8l-24 6-25 6-7-11-7-11 14-9c8-5 26-9 42-9h27l12 26 12 26-23 19c-13 11-30 19-38 19h-14l6 10 7 11 18-6 18-6 7 12 8 11-14 9c-18 11-40 11-61-2zm112-42v-54l18-16 19-17h51l13 16 13 16 1 52v51h-30l-3-48-3-48-16-6-15-6-9 14c-5 8-9 33-9 57v42h-30v-53zm160-17v-70h30v40h29l6-20 6-20h40l-10 18-10 18 6 42 6 42-27 10c-15 5-38 10-52 10h-24v-70zm68 23 4-13h-42v31l17-3c9-2 18-9 21-15zm66 30c3-10 14-40 25-68l19-50h35l24 64c24 65 24 77 0 68l-13-5-14-42-14-41-16 43-16 43-18 3-18 4 6-19zm163 11c-4-4-7-36-7-71v-63h100v30h-60v20h50v30h-50v30h62l-4 13-5 12-39 3c-22 2-43 0-47-4zm113 0c0-3 11-22 25-42l25-37v-55h30v50l25 40c29 46 30 50 11 50-8 0-23-12-33-26l-19-25-14 25-13 26h-19c-10 0-18-2-18-6zm230-64v-70h30v40h10c5 0 15-9 22-20l13-20h36l-10 18-10 18 6 42 6 42-27 10c-15 5-38 10-52 10h-24v-70zm68 23 4-13h-42v31l17-3c9-2 18-9 21-15zm79 40c-4-3-7-35-7-70v-64l47 3 46 3 5 13 4 12h-62v20h50v30h-50v30h50v30h-38c-21 0-42-3-45-7zm146-1c-11-7-16-26-14-50l1-13 30-10c17-6 30-16 30-21v-10l-29 5c-34 7-45-1-30-20l11-13h54l12 12c7 7 12 22 12 34v22l-30 12c-16 7-30 17-30 22v10l24-6 25-6 6 9 6 10-20 10c-23 13-41 14-58 3zm117-62v-70h90v30h-60v19l27 3 26 3 5 13 4 12h-62v30h60v30h-90v-70zm171 52c-6-10-19-42-30-71l-21-51h40v30h49l9-16 9-16 16 3 16 4-27 64c-15 35-32 66-39 68l-12 4-10-19zm29-52c0-5-4-10-10-10-5 0-10 5-10 10 0 6 5 10 10 10 6 0 10-4 10-10zm90 0v-70h30v40h10c5 0 15-9 22-20l13-20h36l-10 18-10 18 6 42 6 42-27 10c-15 5-38 10-52 10h-24v-70zm68 23 4-13h-42v31l17-3c9-2 18-9 21-15zm92 27-20-20v-67l18-16 19-17h24c14 0 33 6 44 13l18 14-7 11-7 12-19-13-20-12-18 11c-9 6-18 20-20 31l-3 20 16 13 17 14 19-12c37-23 53-8 23 22l-15 16h-49l-20-20zm140-50v-70h30v50h50v-51l18 3 17 3v130l-17 3-18 3v-61h-50v60h-30v-70z"/></g><g fill="#a9adb3" transform="matrix(.1 0 0 -.1 0 300)"><path d="M658 2110c-26-5-72-19-102-33l-54-25-42-42-42-42-27-57-26-56v-210l27-55c15-30 45-84 68-119l40-65v-60c-1-34-7-90-15-126s-14-75-15-87v-23h386l12 12 12 12v106l26 10c14 6 49 10 79 10h54l21 27 21 27-6 25-6 24 12 29 11 28-11 14-12 14 17 6 16 6-5 28-6 28 34 13 33 12 6 15 6 16-42 71-41 71-8 81-7 81-16 39c-9 21-32 57-50 80l-34 41-59 32-59 31-64 10c-36 6-69 10-75 10-5-1-31-5-57-9zm112-90 20-20v-41l23 8c32 11 74 8 93-7l16-14-6-30-6-30-21-23-22-22 27-31 26-32v-46l-15-12-15-13-50 5-50 5v-13c0-7-11-25-24-41l-23-28-5-52c-3-29-3-55 0-58s15 11 26 31c12 21 33 46 47 56 28 21 94 39 114 31l13-5-10-29-10-29-30-25-30-26-59-16-59-16v-131c0-133-5-176-21-176h-9v290l-22 14c-13 8-39 17-58 21l-35 7-33 25c-27 20-62 69-62 88 0 3 18 5 40 5h41l30-16 30-15 30-47 29-46v116l-25 30c-14 16-25 35-25 42v13l-50-5-50-5-15 13-15 12v46l26 32 27 31-21 22c-11 12-23 34-27 49l-7 26 21 21c23 23 38 26 75 11l25-9 7 22c3 12 13 30 22 40l15 17h67l20-20zm-77-87-22-4-26-30-25-31v-56l26-31 26-31h96l26 31 26 31v58l-27 29-28 29-25 4c-14 3-35 3-47 1zm57-67 12-15-4-23-3-23-23-3-23-4-15 12c-7 7-14 20-14 29 0 37 46 55 70 27zm550 49v-145h59l3 88 3 87 40-67c21-38 42-68 46-68s24 30 46 66l38 66 3-86 3-86h59v290h-65l-40-70c-22-38-42-70-45-70s-23 32-45 70l-40 70h-65v-145zm370 0v-145h60v290h-60v-145zm130 0v-145h70v173l61-86 60-87h59v290h-59l-3-91-3-91-63 91-63 91h-59v-145zm320 0v-145h141l30 15 30 16 19 32 20 32v90l-18 34-19 34-34 19-34 18h-135v-145zm150 67 21-17 6-40 5-40-22-27-21-28h-79v170h68l22-18zm-933-394c-21-57-37-106-37-110 0-5 11-8 24-8h24l5 20 5 20h90l5-20 5-20h54l-6 18c-4 9-23 59-43 110l-36 92h-53l-37-102zm71-26c-28-5-33 4-18 35l13 28 12-30 13-30-20-3zm132 18v-110h49l3 65 3 65 44-65 44-65h47v220h-50v-134l-46 67-46 67h-48v-110zm240 0v-110h101l29 15c37 19 50 43 50 95v41l-16 24-15 24-31 10c-17 6-51 11-74 11h-44v-110zm111 50 19-11v-78l-19-11c-11-5-29-10-40-10h-21v120h21c11 0 29-5 40-10zm-56-244c-16-7-41-26-55-41l-25-27v-127l29-30 29-31 34-11 34-11 34 6c40 8 80 38 100 76l15 29v76l-20 32c-25 41-60 64-107 69l-38 4-30-14zm105-66c11-11 22-31 26-45l6-25-12-31-13-31-24-9c-13-5-33-9-44-9h-20l-24 25-25 24v72l25 24 24 25h61l20-20zm205 60-41-20-17-29-17-29v-95l20-33 21-33 44-17 44-16 35 6 35 7 31 25 30 25 11 39 12 38-7 35-7 35-21 27-21 27-33 14c-45 19-72 18-119-6zm105-50 18-10 11-33 11-33-11-33-11-32-25-10c-13-5-33-9-44-9h-20l-24 25-25 24v72l25 24 24 25h26c15 0 35-4 45-10zm-950-75v-135h161l24 25 25 24v49l-19 23-19 23 15 22 14 22-7 26-6 26-21 15-21 15h-146v-135zm125 55v-25l-32-3-33-3v62l33-3 32-3v-25zm15-95 12-15-12-15-12-15h-68v60h68l12-15zm120 40v-135h170v50h-110v220h-60v-135zm830 0v-135h59l3 83 3 82 40-68 40-68 8 13c5 7 24 38 42 68l35 55v-165h60v270h-68l-38-65-38-64-11 17c-7 9-24 38-39 65l-28 47h-68v-135zM496 984c-9-8-16-22-16-30v-15l30-17c16-9 30-21 30-25v-8l-22 3-23 2-5-8-5-9 16-10 16-10 25 6 26 7 6 15c9 24-3 42-35 55-16 7-29 17-29 22v10l25-4 25-5 6 8 5 8-20 10c-27 15-37 14-55-5zm1212 5-18-10v-47l30-12c17-7 30-17 30-22v-9l-30 3-29 3-3-10-3-10 28-9 28-10 17 10 17 11v48l-27 13c-16 7-28 18-28 24v10l25-6 25-6v14c0 24-34 32-62 15zm568-10-26-20v-59l20-20 20-20h21c25 0 59 17 59 30v10l-40-6-39-6-7 27-7 27 17 16 16 17 21-14 21-13 10 10 10 10-23 16c-30 21-41 20-73-5zM610 947v-43l16-22 15-22h20c11 0 29 5 40 10l19 11v109h-30V889l-22 3-23 3-3 48-3 47h-29v-43zm162-18 3-62 13-5 12-4v26c0 33 9 33 36-1l22-28 8 8 8 8-13 21-13 21 12 7 12 7-4 29-3 29-48 3-48 3 3-62zm63 21v-15l-17-3-18-3v42l18-3 17-3v-15zm91-22c13-34 24-64 24-66s7-2 16 0l16 3 23 63 22 62h-34l-13-42-13-43-13 30c-7 17-13 36-14 43v12h-39l25-62zm144-4v-65l42 3 41 3 5 13 4 12h-62v30h50v20h-50v30h50v20h-80v-66zm120 59c0-5 9-19 20-33l20-25v-65h30v55l20 30c24 36 25 45 5 45h-14l-12-22-12-22-15 22c-14 21-42 31-42 15zm220-58v-65h30v50h10c6 0 16-11 22-25l11-25h27v13c0 7-5 18-12 25l-12 12 12 12c7 7 12 22 12 34v22l-16 6c-9 3-31 6-50 6h-34v-65zm65 25v-15l-17-3-18-3v42l18-3 17-3v-15zm77-22 3-63 43-3 42-3v31h-62l4 13 5 12 26 3 27 3v19h-60v30h60v20h-91l3-62zm268-3v-65h90v30h-60v30h50v20h-50v30h60v20h-90v-65zm150 5-23-61 7-7 8-7 12 18 13 17h46l13-17 12-18 8 7 7 7-23 61-22 60h-36l-22-60zm50-6c0-8-4-14-10-14h-10v41l10-6c6-3 10-13 10-21zm90 2v-66h30v50h10c6 0 16-11 22-25l11-25h14c16 0 16 5 3 30l-10 20 12 20 13 20-11 18-11 17-42 3-41 3v-65zm65 24v-15l-17-3-18-3v42l18-3 17-3v-15zm235-25v-65h30v50h49l3-22c2-12 9-23 16-26l12-4v132h-30v-50h-50v50h-30v-65z"/></g><g fill="#777f8b" transform="matrix(.1 0 0 -.1 0 300)"><path d="M603 2096c-61-20-106-51-157-108l-46-50-20-65-20-65v-104l15-59 16-60 51-80 52-80 4-70 4-70-16-68c-9-38-16-75-16-83v-14h398l4 56 5 57 18 13 19 14h112l22 16 22 15v95l12 12 12 12-11 20-12 19 12 4 12 4v67l24 6c13 3 29 13 35 23l11 17-42 83-42 82-4 66-5 67-24 53-25 54-39 39-39 39-55 25-55 26-95 3-95 3-42-14zm170-74c9-8 17-23 17-32s3-20 6-23l7-6 19 10 20 11 34-7 34-6 6-25 7-26-16-34c-9-19-21-34-27-34h-9l24-36 25-37v-45l-12-9c-7-6-23-13-36-16l-23-5-29 8-30 9v-14c0-7-11-27-25-43l-25-30v-105l30 41c37 51 64 69 116 78l41 6 7-11 7-10-15-28c-8-15-25-38-39-51l-25-23-58-18-59-17-5-150-5-149h-30l-5 149-5 150-61 18-62 18-36 41-37 40 3 17 4 17 43-2 43-2 25-16c13-9 37-37 54-63l29-46v119l-25 24-25 23v36l-34-9-34-9-26 10c-15 5-29 17-32 25-9 22 4 63 27 86l20 20-26 30-25 31v47l16 15 15 16h27c15 0 34-5 42-10l15-9 15 32 15 31 25 13 25 13 20-6c11-4 28-13 38-22zm-125-122-30-31 5-37 6-37 26-22 26-23h78l28 24 28 24v84l-28 24-28 24h-81l-30-30zm107-60v-35h-70l-3 23c-2 13-1 30 2 38l6 15 32-3 33-3v-35zm545 76v-146h60v185l43-72c23-40 44-73 47-73s24 30 45 68l40 67 3-87 3-88h59v291l-32-3-32-3-40-67c-23-38-43-68-46-68s-23 30-46 68l-40 67-32 3-32 3v-145zm370-1v-145h60v290h-60v-145zm130 0v-145h59l3 92 3 91 64-91 64-92h57v290h-59l-3-92-3-91-64 91-64 92h-57v-145zm320 0v-145h145l33 20 33 20 15 35 14 34v76l-20 33-20 32-32 20-33 20h-135v-145zm155 60 25-24v-31c0-33-15-70-34-82-6-4-28-8-48-8h-38v170h71l24-25zm-899-294c-10-15-76-192-76-202v-9h42l5 20 5 20h97l6-20 6-20h25c13 0 24 1 24 3 0 6-76 194-83 205-9 14-43 16-51 3zm53-123c1-5-10-8-24-8h-25v14c0 8 5 27 11 43l11 28 13-35c8-19 14-38 14-42zm115 119c-3-8-3-56-2-108l3-94 22-3 22-3 3 67 3 67 45-67 45-66 20 2 20 3v210h-40l-3-64-3-64-35 49c-50 72-62 84-79 84-9 0-18-6-21-13zm236-97v-112l61 4 62 4 28 32 29 32v80l-28 31-27 30-63 6-62 6v-113zm128 28 13-28-13-27-13-28-38-3-37-3v122l37-3 38-3 13-27zm-62-218c-35-11-63-36-82-72l-14-27v-76l20-32c10-18 31-39 45-49l25-16h99l31 22 32 23 14 33c8 18 14 45 14 59s-6 41-14 59l-14 33-29 21-29 20-34 6-35 5-29-9zm99-75 25-24v-72l-25-24-24-25h-62l-24 25-25 24v72l25 24 24 25h62l24-25zm220 75-31-9-29-31-30-31v-129l31-30 31-31 37-9 37-8 36 10 37 10 27 29 27 29 6 34 7 35-7 28c-15 60-55 98-115 107l-34 5-30-9zm92-65 22-16 6-33 7-34-16-30c-16-32-34-42-72-42h-25l-24 25-25 24v75l22 23 21 23h63l21-15zm-957-70v-135h74c90 0 103 4 122 42l15 29-7 22c-3 12-13 29-21 39l-14 16 10 7 11 6v32c0 38-7 50-37 66l-22 11h-131v-135zm134 69 6-17-11-13-11-14h-58v60h68l6-16zm0-100c19-19 20-26 4-42l-12-12h-66v70h59l15-16zm126 31v-135h170v50h-110v220h-60v-135zm840 0v-135h50v161l9-5c5-3 23-31 40-61l32-56 9 6c5 3 24 31 42 63l33 57 3-82 3-83h59v270h-66l-38-65c-21-36-39-65-41-65s-20 29-41 65l-38 65h-56v-135zM491 976l-12-15 10-19 10-20 26-6 25-6v-22l-30 4-30 3-2-10-2-10 27-9 26-9 15 13 16 12v46l-30 12c-16 7-30 17-30 22v9l25-3 24-3 3 10 3 10-31 3-31 3-12-15zm119-20c0-19 4-46 10-60l9-25 26-7 26-6 19 17 20 18v97h-20v-37c0-21-4-44-9-51l-8-14-19 4-19 3-3 48-3 47h-29v-34zm170-30v-66h20v50h9c5 0 18-12 29-27l20-28 7 7 7 6-11 21-11 21 12 20 13 20-11 18-11 17-37 3-36 3v-65zm60 24v-20h-40v40h40v-20zm70 33c0-13 33-97 43-110 16-22 24-15 47 47l23 61-7 6-6 7-9-10c-5-5-14-27-22-49l-13-40-15 48-15 47h-13c-7 0-13-3-13-7zm160-58v-65h80v30h-60v30h60v20h-60v30h60v20h-80v-65zm136 38c10-16 20-44 24-63l5-35 10 2c6 1 12 15 13 30 2 15 12 39 23 54 10 15 19 30 19 33 0 14-23 4-40-16l-17-22-12 22-12 22h-31l18-27zm206-35 3-63 10 2c6 1 11 11 13 23 4 27 12 25 38-7l22-28 7 7 7 6-11 21-11 21 12 20 13 20-11 18-11 17-42 3-42 3 3-63zm68 22v-20h-40v40h40v-20zm80-25v-65h80v30h-60v30h60v20h-60v30h60v20h-80v-65zm137 59c-4-4-7-16-7-26v-19l30-17c16-9 30-21 30-25v-8l-27 3-26 3-4-12-4-12 24-6 25-7 22 12 21 11-3 22-3 22-27 13c-16 7-28 18-28 23v10l20-3 19-3 3 10 3 10-30 3c-17 2-34 0-38-4zm125-56 3-63 43-3 42-3v31h-60v30h50v20h-50v30h60v20h-91l3-62zm149 1-23-60 7-7 7-7 12 18 13 17h46l13-17 12-18 7 7 7 7-23 60-24 61h-30l-24-61zm52 1 5-20h-19c-21 0-22 1-13 24 8 22 21 20 27-4zm89-2 3-63 10 2c6 1 11 11 13 23 4 27 12 25 38-7l22-28 7 7 7 6-11 21-11 21 12 20 13 20-11 18-11 17-42 3-42 3 3-63zm68 22v-20h-40v40h40v-20zm86 18c-21-30-20-50 5-82l20-26h46l18 20 17 19-43-2-44-2-3 33-3 32 17 7 17 6 19-12 19-12 10 7 10 6-12 14-11 14h-67l-15-22zm146-40 3-63 10 2c6 1 11 14 13 28l3 26 27-3 27-3 3-27 3-28h19v130h-20v-50h-60v50h-31l3-62z"/></g><g fill="#455265" transform="matrix(.1 0 0 -.1 0 300)"><path d="M615 2096c-22-7-58-22-81-34l-40-21-38-42-38-42-24-52-24-52-6-59-6-59 12-60c14-67 32-106 90-196l39-61 6-41 6-42-20-102c-12-55-21-104-21-107s90-6 200-6h200v96l15 21 15 21 69 4 69 4 16 13 16 13v47c0 25 4 53 9 60l10 15-9 16-9 17 9 9c5 5 10 22 12 39l3 29 24 6c13 3 29 13 35 22l10 17-41 78-41 78-6 75-6 75-26 52-25 52-50 45-51 46-65 20-65 20-67-1h-66l-40-13zm143-62c13-9 27-27 32-40l10-24 38 6 39 6 22-11 21-12v-61l-21-29-20-29 20-26 21-27v-57l-25-16-24-16-41 7-40 7v-17c0-9-11-27-25-41l-25-25v-104l19 30c38 61 92 95 152 95h29v-16c0-9-9-31-19-48l-20-31-32-19c-17-10-53-24-78-31l-46-11-5-150-5-149h-30l-5 149-5 150-46 11c-25 7-61 21-78 31l-32 19-20 31c-10 17-19 39-19 49v18l46-6 46-5 27-19c14-11 37-37 51-58l25-38 3 51 3 50-26 26c-14 14-25 32-25 41v17l-40-7-41-7-24 16-25 16v58l26 31 26 31h-11c-15 0-41 54-41 84v25l21 12 22 11 38-6 38-6 6 20c8 24 52 60 74 60 9 0 27-7 39-16zm-95-119-21-15-12-34-11-35 16-30c8-17 24-35 34-41 26-13 77-13 103 1l20 11 14 34 14 34-14 34-14 34-20 11c-12 6-36 11-54 11h-34l-21-15zm97-54 10-20-6-16c-4-8-15-20-25-26l-19-10-19 10c-10 6-21 18-25 26l-6 16 10 20 11 19h58l11-19zm547 192c-4-3-7-69-7-145v-138h60v185l19-30c10-16 31-50 46-74l27-44 44 74 44 74v-185h60v290h-59l-37-62c-20-35-42-69-47-76l-10-12-44 75-43 75h-24c-12 0-26-3-29-7zm370 0c-4-3-7-69-7-145v-138h60v290h-23c-13 0-27-3-30-7zm133-138v-145h49l3 93 3 92 65-92 64-93h56v290h-59l-3-92-3-93-65 93-64 92h-46v-145zm310 0v-145h135l34 18 34 19 19 34 19 34-4 48-4 48-20 27c-11 15-35 35-54 44l-34 18h-125v-145zm158 59 22-25v-77l-18-22-17-21-43-6-42-6v194l38-6 37-7 23-24zm-938-386c-19-51-36-96-38-100l-4-8h50l5 20 5 20h81l11-20 11-20h19c11 0 20 3 20 7s-17 49-37 100l-36 93h-53l-34-92zm90-25v-13h-30c-35 0-35-1-14 48l16 37 14-30c7-16 13-36 14-42zm120 17v-100h39l3 63 3 62 43-62 43-63h39v200h-39l-3-61-3-61-43 61-43 61h-39v-100zm230 0v-100h119l28 24 28 24v104l-28 24-28 24h-119v-100zm123 38c21-25 22-47 1-76l-15-22h-69v58c0 32 3 62 7 66l7 7 26-6c14-3 33-15 43-27zm-603-363v-135h147l27 21 26 20v69l-19 17-19 16 14 14 14 14v58l-26 20-27 21h-137v-135zm137 69 5-14-12-15-12-15h-58v66l36-4 36-4 5-14zm-3-97 18-13-3-20-4-19-43-3-42-3v71h28c16 0 36-6 46-13zm126 28v-135h170v49l-57 3-58 3-3 108-3 107h-49v-135zm252 115-33-20-15-35c-18-43-18-77 0-120l15-35 33-20 33-20h86l30 16 31 15 19 42c23 53 23 71 0 124l-19 42-31 15-30 16h-86l-33-20zm137-56 21-27v-64l-21-27-20-26h-73l-23 22-23 21v81l22 23 21 23h76l20-26zm184 56-32-19-16-30-15-30v-78l23-34c12-18 34-39 47-46l25-13h87l28 16c15 9 35 30 45 47l18 31v82l-18 31c-10 17-30 38-45 47l-28 16h-87l-32-20zm136-56 21-27v-64l-21-27-20-26h-75l-22 20-22 21v89l20 20 20 20h79l20-26zm131-59v-135h49l3 88 3 87 38-67c21-38 40-68 42-68s22 30 44 68l41 67v-175h50v270h-55l-27-48c-15-26-33-56-41-66l-14-19-39 66-39 67h-55v-135zM490 971l-10-20 15-15c8-8 24-18 35-21 22-7 26-20 10-30l-10-6-19 11-20 10-6-10-6-10 26-10 26-10 20 11 20 10-3 22-3 22-27 13c-16 7-28 18-28 24v10l25-4 25-5v27h-59l-11-19zm130-36v-55l26-11 27-10 23 16 24 15v100h-20v-89l-18-10-19-10-11 11-12 12v86h-20v-55zm160-4v-61h20v40h29l6-20 6-20h30l-11 20-10 20 12 20 13 20-11 18-11 17-37 3-36 3v-60zm65 19v-15l-22-3-23-3v42l23-3 22-3v-15zm65 36c0-2 10-29 21-60l22-56h26l21 56c11 31 18 59 15 62-9 9-22-10-35-53l-13-40-8 20c-5 11-13 32-19 48-5 15-14 27-20 27-5 0-10-2-10-4zm160-56v-60h80v20h-60v30h50v20h-50v30h60v20h-80v-60zm145 17c14-24 25-51 25-60 0-10 5-17 10-17h10v53l21 33 21 34h-29l-12-27-13-27-16 27-17 27h-26l26-43zm205-16v-61h20v40h10c5 0 15-9 22-20s19-20 26-20h13l-11 20-10 20 12 20 13 20-11 18-11 17-37 3-36 3v-60zm65 19v-15l-22-3-23-3v42l23-3 22-3v-15zm75-20v-60h80v20h-60v30h50v20h-50v30h60v20h-80v-60zm134 46c-9-24 3-45 32-56l26-10-5-13-4-12-29 3-29 2 20-15 19-15 14 5c8 3 17 5 22 5 11 0 20 28 14 44-3 8-19 20-35 26-16 7-29 17-29 22v9l25-3 24-3 3 10 3 10-33 3-32 3-6-15zm126-46v-60h90v20h-60v30h50v20h-50v30h60v20h-90v-60zm177 53c-3-5-15-32-26-61l-21-52h10c5 0 12 5 15 10l6 10h57l4-11 4-12 11 4 11 4-22 54c-21 53-38 71-49 54zm23-32c0-5 3-16 6-25l6-16h-44l6 16c3 9 6 20 6 25s5 9 10 9c6 0 10-4 10-9zm98-21 4-60h18v40h10c5 0 15-9 22-20s19-20 27-20h13l-12 15-13 16 14 25 13 25-10 17-11 17-39 3-39 3 3-61zm67 20v-15l-22-3-23-3v42l23-3 22-3v-15zm81 18c-9-12-16-31-16-41v-18l25-24c28-29 43-31 71-11l19 14-7 7-6 7-20-11-19-10-17 12-18 13 4 29 3 30 38-1 37-1v7c0 11-26 20-55 20h-24l-15-22zm154-38v-60h20v50h60v-50h20v120h-20v-50h-60v50h-20v-60z"/></g><g fill="#072242" transform="matrix(.1 0 0 -.1 0 300)"><path d="m599 2087-66-23-37-28c-50-38-91-96-112-159l-18-52v-130l13-52 13-51 49-79c27-43 55-96 61-117l12-39-17-96c-9-53-20-106-23-118l-6-23h402v109l15 14 14 15 71 7 71 7 14 15 15 14 2 47c1 26 2 59 2 74 1 14 4 30 9 34 4 4 7 21 7 39v31l32 9 33 10 3 16 3 16-42 73-42 73-7 81-7 81-26 51-26 51-35 31c-45 40-87 61-151 78l-50 14h-55l-55-1-66-22zm168-57c12-10 24-28 27-38l7-19 44 5 45 5 15-13 15-12v-65l-21-27-20-26 20-26 21-27v-66l-21-12-22-11-43 6-44 6v-16c0-8-11-26-26-40l-25-26 3-46 3-46 27 41 26 40 35 16 35 17h72v-17c0-10-9-32-20-50l-19-32-38-20c-21-10-57-24-81-30l-42-12v-299h-40v299l-17 5c-10 3-37 10-59 15-53 14-90 43-115 92l-20 39 16 6c9 4 33 4 55 1l38-5 25-18c14-11 37-37 51-59l26-39v109l-20 13c-12 7-25 23-30 36l-9 24-39-5-39-5-22 11-21 12v66l21 27 20 26-20 26-21 27v65l15 12 15 13 45-5 45-6v15c0 8 11 25 25 38l24 25h57l21-20zm-92-112c-11-6-26-18-32-26l-13-16v-72l20-22c11-12 32-25 45-28 34-9 71 2 95 28l20 22v74l-31 26-31 26h-26c-15 0-36-6-47-12zm73-44 22-15v-16c0-21-29-53-48-53-22 0-52 30-52 51v18l22 15c12 9 25 16 28 16s16-7 28-16zm1240 90-3-93-63 90-63 89h-49v-280h49l3 96 3 96 65-96 65-95 23-1h22v278l-25 4-24 5-3-93zm-678-54v-140h50v195l42-72c23-40 45-73 49-73s24 30 46 66l38 66 3-91 3-91h59v280h-65l-40-70c-22-38-42-70-45-70s-23 32-45 70l-40 70h-55v-140zm370 0v-140h50v280h-50v-140zm440 0v-140h125l34 18c19 9 44 29 55 45l20 28v104l-18 28c-11 15-32 35-47 43l-28 14h-141v-140zm135 86 34-14 9-35 10-35-5-26-5-26-26-20-25-20h-77v88c0 49 3 92 7 95 10 11 41 8 78-7zm-885-338c-5-13-23-57-39-98l-29-75 16-4 16-3 14 21 14 21h87l6-20 6-20h41l-6 18c-4 9-21 54-39 99l-32 83h-45l-10-22zm53-65 17-43h-71l7 23c13 42 25 70 28 66 1-2 10-23 19-46zm127-13v-100h30v130h8c4 0 27-29 51-65l44-65h37v200h-29l-3-67-3-68-49 68-50 67h-36v-100zm230 0v-100h121l24 24c13 13 27 36 31 50l6 26-6 26c-4 14-18 37-31 50l-24 24h-121v-100zm104 60 25-9 7-26c3-14 4-35 0-48l-6-24-25-11c-14-7-35-12-45-12h-20v140h19c11 0 31-4 45-10zm-574-385v-137l74 4 74 3 21 19 21 19v61l-20 21-21 22 16 13 15 12v46l-19 23-19 23-71 4-71 4v-137zm114 82 18-13-3-20-4-19-38-3-37-3v71h23c13 0 31-6 41-13zm19-118 10-16-6-17-6-16h-81v71l36-3 37-3 10-16zm117 36v-135h170v50h-120v220h-50v-135zm253 114-31-20-16-40c-20-49-20-59 0-109l16-40 35-21 34-21 52 5 51 4 33 37 33 36v112l-39 39-39 39h-97l-32-21zm135-52 22-20v-81l-22-23-21-23h-34c-19 0-43 4-53 10l-18 10-11 32-11 32 11 34 11 34 32 13 31 14 20-6c11-3 30-15 43-26zm186 55-31-20-16-35c-21-43-21-77-3-122l15-35 33-20 33-21 53 4 53 4 32 32 32 31v130l-32 31-32 32-53 4-53 4-31-19zm134-58 22-25v-66l-21-27-20-26h-79l-20 20c-11 11-22 31-26 45l-6 25 13 31 12 31 31 14 31 13 20-5c11-3 30-17 43-30zm132-58v-136h49l3 88 3 87 39-65c21-36 39-66 41-68 1-2 20 28 41 65l39 68 3-87 3-88h49v271l-27-3-26-3-36-59c-20-33-40-60-45-60-5-1-26 26-46 59l-37 60-26 3-27 3v-135zM494 975c-9-23 3-44 32-55l26-10-5-13-4-12-27 2-26 2v-20l38 3 37 3 3 22 3 22-31 16-31 16 4 12 4 12 22-2 22-3-6 10c-3 6-17 10-31 10h-25l-5-15zm126-33v-48l12-12 12-12h55l11 19c5 11 10 38 10 60v41h-20v-88l-15-12-15-12-15 6-15 5v101h-20v-48zm160-12v-60h20v40h13c7 0 18-9 25-20s17-20 23-20h11l-12 15-12 15 13 31 13 32-19 13-19 14h-56v-60zm65 20v-15l-22-3-23-3v42l23-3 22-3v-15zm87-20 20-60h26l15 43c8 23 18 50 22 60l7 17h-20l-12-37c-7-21-16-42-20-46l-7-8-17 46c-10 25-21 45-26 45h-9l21-60zm138 0v-60l43 1 42 1-30 7-30 6-3 18-3 17h51v20h-50v30h60v20h-80v-60zm145 23 25-38v-46l10 6c6 3 10 16 10 27s9 36 21 54l21 34h-10c-6 0-19-12-30-27l-20-28-13 28-12 27h-28l26-37zm205-23v-60h20v40h29l6-20c9-29 22-25 22 8 0 15 3 34 7 43l7 16-16 17-16 16h-59v-60zm65 20v-15l-22-3-23-3v42l23-3 22-3v-15zm75-20v-60l43 2 42 1-32 4-33 4v39h50v20h-50v30h60v20h-80v-60zm142 48c-7-7-12-18-12-26v-13l36-15 35-15-4-12-4-12-34 3-34 3 11-11 12-12 28 4 29 3v49l-25 13-25 12v26l28-3 29-3-7 10c-8 15-48 14-63-1zm128-48v-60l43 1 42 2-35 6-35 6-3 18-3 17h61v20h-60v30h60v20h-70v-60zm161 38c-5-13-16-40-24-60l-16-38h9c5 0 12 5 15 10l6 10h58l6-10c3-5 10-10 15-10h9l-24 57c-12 32-28 59-34 61l-11 4-9-24zm33-24c3-9 6-20 6-25v-9h-40v9c0 17 12 41 20 41 4 0 11-7 14-16zm96-14v-60h20v40h29l6-20c3-11 11-20 16-20 11 0 11 11 0 29l-9 14 14 14c18 18 18 28-2 47l-15 16h-59v-60zm65 20v-15l-22-3-23-3v42l23-3 22-3v-15zm93 29-18-10v-77l14-11 15-12 32 3 32 3 5 13 4 12-27-12-27-12-19 23c-24 29-24 36 1 61l20 20 21-11 21-11 6 7 6 6-14 9c-19 13-51 12-72-1zm142-49v-60h20v50h60v-50h20v120h-20v-50h-67l5 25 4 25h-22v-60z"/></g></g></svg>